<svg xmlns="http://www.w3.org/2000/svg" viewBox="0 0 800 800" role="img" aria-labelledby="title desc">
  <title id="title">犬</title>
  <desc id="desc">サフ状態</desc>
  <defs>
    <linearGradient id="bg" x1="0" y1="0" x2="1" y2="1">
      <stop offset="0%" stop-color="hsl(180, 65%, 94%)"/>
      <stop offset="100%" stop-color="hsl(215, 55%, 84%)"/>
    </linearGradient>
    <filter id="shadow" x="-30%" y="-30%" width="160%" height="160%">
      <feDropShadow dx="0" dy="18" stdDeviation="18" flood-opacity=".16"/>
    </filter>
  </defs>
  <rect width="800" height="800" rx="48" fill="url(#bg)"/>
  <circle cx="400" cy="300" r="128" fill="#fff" opacity=".92" filter="url(#shadow)"/>
  <path d="M285 585c16-118 80-176 115-176s99 58 115 176" fill="#fff" opacity=".92" filter="url(#shadow)"/>
  <path d="M318 286c18-78 70-116 122-108 56 9 88 58 82 125-22-30-58-48-102-51-38-2-73 9-102 34z" fill="hsl(215, 28%, 43%)"/>
  <circle cx="356" cy="305" r="10" fill="#25365f"/>
  <circle cx="444" cy="305" r="10" fill="#25365f"/>
  <path d="M372 353c17 12 39 12 56 0" fill="none" stroke="#25365f" stroke-width="7" stroke-linecap="round"/>
  <rect x="148" y="650" width="504" height="72" rx="36" fill="#fff" opacity=".88"/>
  <text x="400" y="686" text-anchor="middle" font-family="sans-serif" font-size="28" fill="#18356b">犬</text>
  <text x="400" y="715" text-anchor="middle" font-family="sans-serif" font-size="18" fill="#5a6b8e">サフ状態</text>
</svg>